HIERARCHY
ROOT hip
{
	OFFSET 0.000000 0.000000 0.000000 
	CHANNELS 6 Xposition Yposition Zposition Xrotation Zrotation Yrotation
	JOINT abdomen
	{
		OFFSET 0.000000 3.402643 0.000000 
		CHANNELS 3 Xrotation Zrotation Yrotation
		JOINT chest
		{
			OFFSET 0.000000 8.438565 -0.680529 
			CHANNELS 3 Xrotation Zrotation Yrotation
			JOINT neck
			{
				OFFSET 0.000000 10.207942 -0.272212 
				CHANNELS 3 Xrotation Zrotation Yrotation
				JOINT head
				{
					OFFSET 0.000000 3.130431 0.000000 
					CHANNELS 3 Xrotation Zrotation Yrotation
					End Site
					{
						OFFSET 0.000000 3.130435 0.000000 
					}
				}
			}
			JOINT lCollar
			{
				OFFSET 3.470700 6.669187 -0.816635 
				CHANNELS 3 Yrotation Zrotation Xrotation
				JOINT lShldr
				{
					OFFSET 3.198488 0.000000 0.000000 
					CHANNELS 3 Zrotation Yrotation Xrotation
					JOINT lForeArm
					{
						OFFSET 10.139888 0.000000 0.000000 
						CHANNELS 3 Yrotation Zrotation Xrotation
						JOINT lHand
						{
							OFFSET 8.370511 0.000000 0.000000 
							CHANNELS 3 Zrotation Yrotation Xrotation
							End Site
							{
								OFFSET 4.083176 0.000000 0.000000 
							}
						}
					}
				}
			}
			JOINT rCollar
			{
				OFFSET -3.470700 6.669187 -0.816635 
				CHANNELS 3 Yrotation Zrotation Xrotation
				JOINT rShldr
				{
					OFFSET -3.198488 0.000000 0.000000 
					CHANNELS 3 Zrotation Yrotation Xrotation
					JOINT rForeArm
					{
						OFFSET -10.139888 0.000000 0.000000 
						CHANNELS 3 Yrotation Zrotation Xrotation
						JOINT rHand
						{
							OFFSET -8.370511 0.000000 0.000000 
							CHANNELS 3 Zrotation Yrotation Xrotation
							End Site
							{
								OFFSET -4.083176 0.000000 0.000000 
							}
						}
					}
				}
			}
		}
	}
	JOINT lThigh
	{
		OFFSET 5.308129 -1.633274 1.361059 
		CHANNELS 3 Xrotation Zrotation Yrotation
		JOINT lShin
		{
			OFFSET -2.041588 -20.007561 0.000000 
			CHANNELS 3 Xrotation Zrotation Yrotation
			JOINT lFoot
			{
				OFFSET 0.000000 -19.190928 -1.224953 
				CHANNELS 3 Xrotation Yrotation Zrotation
				End Site
				{
					OFFSET 0.000000 -2.449906 4.627600 
				}
			}
		}
	}
	JOINT rThigh
	{
		OFFSET -5.308129 -1.633274 1.361059 
		CHANNELS 3 Xrotation Zrotation Yrotation
		JOINT rShin
		{
			OFFSET 2.041588 -20.007561 0.000000 
			CHANNELS 3 Xrotation Zrotation Yrotation
			JOINT rFoot
			{
				OFFSET 0.000000 -19.190928 -1.224953 
				CHANNELS 3 Xrotation Yrotation Zrotation
				End Site
				{
					OFFSET 0.000000 -2.449906 4.627600 
				}
			}
		}
	}
}
MOTION
Frames: 11
Frame Time: 0.016667
2.814735 42.469128 84.982445 2.708360 2.819120 -1.985520 -13.633600 0.939936 0.380547 23.877100 -0.506960 0.449018 25.548201 -5.867850 1.833490 18.163099 2.423740 2.109460 2.000000 -2.000000 0.000000 -1.086890 -57.246799 154.388000 41.631302 -0.317036 0.090883 0.065261 -0.058024 -158.123001 -2.000000 2.000000 0.000000 -1.418630 64.943497 144.203995 -40.058998 0.319489 0.087991 -0.062017 0.048846 -154.645996 -18.127615 0.958888 -3.029886 24.585463 2.910114 1.844437 -8.768567 7.128121 2.167171 8.966371 -3.057611 -0.149481 17.208593 -8.066467 -1.013345 -23.732893 -6.328506 -0.708212 
3.092031 42.548866 85.457191 2.747420 2.799520 -2.990390 -13.680300 0.838928 0.773816 23.662300 -0.633833 0.619802 25.460100 -5.977440 1.880590 18.064600 2.358670 2.137580 2.000000 -2.000000 0.000000 -1.409620 -57.079102 155.179001 41.914501 -0.316586 0.091387 0.065710 -0.059170 -158.561996 -2.000000 2.000000 0.000000 -0.273626 64.775002 145.453003 -39.961300 0.319639 0.087812 -0.062210 0.049445 -154.871002 -17.423941 0.964903 -2.425135 24.556618 2.911452 1.864563 -9.570494 7.044630 2.283101 8.722394 -3.464813 0.701056 18.067223 -7.803583 -1.053339 -22.885260 -6.769754 -0.897747 
3.361452 42.663452 85.963837 2.728390 3.014160 -3.860020 -13.541800 0.711843 1.015040 23.750099 -0.546026 0.711631 25.467800 -6.048830 1.950510 18.103901 2.377130 2.163470 2.000000 -2.000000 0.000000 -1.456980 -56.775902 155.382996 42.090302 -0.316305 0.091698 0.065781 -0.059347 -158.630997 -2.000000 2.000000 0.000000 0.050993 64.812897 146.087006 -39.902802 0.319729 0.087705 -0.062059 0.048977 -154.695007 -16.463385 0.647196 -1.585905 24.172686 2.898698 1.818624 -10.104610 6.950368 2.361392 8.551621 -4.261430 1.236429 19.161743 -7.454179 -1.102250 -22.449007 -6.169907 -0.818754 
3.605057 42.790382 86.434311 2.875310 3.101570 -4.736580 -13.557700 0.602119 1.440200 23.652500 -0.624088 0.893876 25.322100 -5.892540 2.042970 18.006901 2.435200 2.212630 2.000000 -2.000000 0.000000 -1.292950 -56.960400 155.862000 42.080502 -0.316321 0.091681 0.065903 -0.059652 -158.748001 -2.000000 2.000000 0.000000 0.735133 64.655296 146.761002 -39.424198 0.320458 0.086826 -0.061533 0.047307 -154.070007 -15.708866 0.456516 -0.970606 23.670963 2.894151 1.804755 -10.420782 7.221165 2.495530 8.127810 -4.909767 1.529453 20.148413 -7.070097 -1.165499 -21.467545 -5.846104 -0.862193 
3.853920 42.912426 86.881081 3.217310 3.003080 -5.436460 -13.555400 0.531699 1.666560 23.681900 -0.692328 0.987475 25.038500 -6.015770 2.096260 17.869301 2.380040 2.231870 2.000000 -2.000000 0.000000 -1.369640 -56.598099 156.291000 42.412498 -0.315788 0.092267 0.065903 -0.059652 -158.748001 -2.000000 2.000000 0.000000 1.116840 64.556396 147.356003 -39.414501 0.320472 0.086808 -0.061429 0.046967 -153.942993 -15.215001 0.378225 -0.619572 23.217735 2.887542 1.770895 -10.767046 7.455914 2.603974 7.430401 -5.476445 1.357576 21.279684 -6.640235 -1.236905 -20.613667 -5.032808 -0.779480 
4.073934 43.041538 87.306503 3.618000 2.923860 -5.781740 -13.720600 0.457455 1.744910 23.466999 -0.702218 1.009110 25.018101 -6.268170 2.045690 17.877600 2.256670 2.211650 2.000000 -2.000000 0.000000 -1.389820 -56.577599 156.729996 42.402802 -0.315804 0.092250 0.065903 -0.059652 -158.748001 -2.000000 2.000000 0.000000 2.045830 64.417900 148.235001 -39.287498 0.320664 0.086574 -0.061104 0.045894 -153.542999 -14.892712 0.218716 -0.582458 22.808233 2.853216 1.760426 -11.164559 7.666834 2.718269 6.756518 -5.882943 1.360395 22.198662 -6.182043 -1.280971 -19.416815 -4.763023 -0.905835 
4.272481 43.163582 87.732834 3.901010 2.757280 -6.012970 -13.876500 0.407547 1.777730 23.213100 -0.663349 1.014030 24.602501 -6.348630 2.167920 17.613501 2.240780 2.255260 2.000000 -2.000000 0.000000 -1.565620 -56.420200 157.296005 42.490700 -0.315662 0.092405 0.066313 -0.060666 -159.139008 -2.000000 2.000000 0.000000 2.662820 64.337997 149.113998 -39.268002 0.320694 0.086538 -0.061199 0.046209 -153.660004 -14.316237 0.128859 -0.714951 22.069441 2.843787 1.720114 -11.167860 8.021697 2.807824 6.051587 -6.253128 0.877451 23.447130 -5.776649 -1.350259 -17.969172 -4.883567 -1.115656 
4.443302 43.270191 88.133987 4.038120 2.825010 -6.118770 -13.710900 0.323830 1.747510 23.339899 -0.438935 0.984446 24.628000 -6.637270 2.204380 17.739599 2.153930 2.268680 2.000000 -2.000000 0.000000 -1.016710 -56.206299 156.847000 42.383202 -0.315835 0.092216 0.065964 -0.059805 -158.806000 -2.000000 2.000000 0.000000 2.574090 64.358299 148.751999 -39.297298 0.320650 0.086592 -0.060910 0.045239 -153.298996 -13.769460 -0.164124 -0.737081 21.586941 2.832482 1.686092 -11.440670 8.063761 2.840847 5.370971 -6.646219 1.148474 25.087719 -5.324932 -1.493155 -16.961052 -5.010083 -1.334598 
4.599216 43.352745 88.510887 4.311920 2.833770 -6.641670 -13.572000 0.531954 1.915900 23.466801 0.107283 1.089460 24.294100 -6.492190 2.332110 17.653500 2.316250 2.284960 2.000000 -2.000000 0.000000 -0.742318 -56.197701 156.319000 42.344200 -0.315898 0.092147 0.065862 -0.059551 -158.709000 -2.000000 2.000000 0.000000 1.593710 64.026703 148.537003 -39.473099 0.320383 0.086916 -0.061509 0.047229 -154.041000 -13.395559 -0.311382 -0.610625 21.193567 2.819405 1.660336 -11.773102 8.441767 3.026657 4.240306 -7.102340 1.302946 26.746416 -4.910169 -1.621035 -15.234273 -4.913745 -1.390996 
4.720508 43.437115 88.878784 4.401340 3.183960 -6.834970 -13.717700 0.257730 2.013210 23.066401 0.214638 1.083660 23.969200 -6.449320 2.345630 17.457600 2.280580 2.287520 2.000000 -2.000000 0.000000 -0.458705 -56.139198 156.272003 42.207500 -0.316117 0.091906 0.065862 -0.059551 -158.709000 -2.000000 2.000000 0.000000 2.462430 63.830299 149.044006 -39.756302 0.319953 0.087437 -0.061461 0.047072 -153.981995 -12.815062 -0.901047 -0.546976 20.626940 2.771314 1.621405 -11.943348 8.600148 3.110333 3.096754 -7.854548 1.015886 28.900360 -4.574038 -1.794751 -13.641096 -5.076458 -1.516062 
4.829925 43.510292 89.239052 4.479040 3.057060 -7.192110 -13.676900 0.334095 2.133990 22.939501 0.487859 1.153200 23.830000 -6.467190 2.394370 17.419201 2.338030 2.289770 2.000000 -2.000000 0.000000 -0.213483 -56.091400 155.813004 42.168400 -0.316180 0.091836 0.065751 -0.059271 -158.600998 -2.000000 2.000000 0.000000 2.079820 63.743099 148.703003 -39.717201 0.320012 0.087365 -0.061541 0.047333 -154.080002 -12.306915 -0.891427 -0.432416 20.337273 2.793050 1.599747 -11.972781 8.925235 3.159571 1.975363 -8.029310 0.978184 30.960554 -4.225657 -1.941810 -12.414638 -5.127985 -1.609628 
